# xmcd
#
# Track frame offsets:
#  150
#  16877
#  30917
#  46947
#  60918
#  76617
#  97510
#  115673
#  139444
#  162340
#  179759
#  195563
#  212368
#  237253
#  254502
#  273397
#
# Disc length: 3826 seconds
#
# Revision: 1
# Processed by: cddbd v1.5.2PL0 Copyright (c) Steve Scherf et al.
# Submitted via: Collectorz.com_Music_Collector 6.11
#
DISCID=c40ef010
DTITLE=Eric Clapton - Irving Plaza NYC (2CDs) [CD1)
DYEAR=1994
DGENRE=Blues
TTITLE0=Motherless Child
TTITLE1=Malted Milk
TTITLE2=How Long
TTITLE3=Kidman Blues
TTITLE4=County Jail
TTITLE5=44
TTITLE6=Blues All Day Long
TTITLE7=Going Away Baby
TTITLE8=Standing Around Crying
TTITLE9=Hoochie Coochie Man
TTITLE10=It Hurts Me Too
TTITLE11=Blues Before Sunrise
TTITLE12=Third Degree
TTITLE13=Reconsider Baby
TTITLE14=Sinner's Prayer
TTITLE15=Can't Judge Nobody
EXTD=
EXTT0=
EXTT1=
EXTT2=
EXTT3=
EXTT4=
EXTT5=
EXTT6=
EXTT7=
EXTT8=
EXTT9=
EXTT10=
EXTT11=
EXTT12=
EXTT13=
EXTT14=
EXTT15=
PLAYORDER=
